<?xml version="1.0"?>
<svg xmlns="http://www.w3.org/2000/svg" xmlns:xlink="http://www.w3.org/1999/xlink" xmlns:svgjs="http://svgjs.com/svgjs" version="1.1" width="512" height="512" x="0" y="0" viewBox="0 0 513.599 513.599" style="enable-background:new 0 0 512 512" xml:space="preserve" class=""><g><g xmlns="http://www.w3.org/2000/svg"><path d="m222.002 156.302c-23.64 0-46.94 6.137-67.38 17.75-3.609 2.05-4.872 6.637-2.822 10.246s6.637 4.872 10.246 2.822c18.181-10.329 38.914-15.788 59.957-15.788 67.032 0 121.568 54.535 121.568 121.567s-54.535 121.568-121.568 121.568-121.567-54.535-121.567-121.568c0-32.126 12.415-62.422 34.957-85.307 2.912-2.957 2.876-7.715-.08-10.627-2.957-2.913-7.715-2.876-10.627.08-25.329 25.715-39.279 59.756-39.279 95.854 0 75.32 61.277 136.597 136.597 136.597s136.597-61.278 136.597-136.597c-.002-75.319-61.279-136.597-136.599-136.597z" fill="#61de00" data-original="#000000" style="" class=""/><path d="m490.275 155.399c12.143 0 22.021-9.878 22.021-22.021s-9.878-22.021-22.021-22.021h-11.243c-.665-3.021-1.468-6.013-2.406-8.963l9.74-5.624c5.094-2.941 8.738-7.69 10.261-13.372 1.522-5.681.741-11.616-2.201-16.71-6.071-10.516-19.566-14.132-30.081-8.06l-9.79 5.652c-2.081-2.276-4.265-4.46-6.541-6.541l5.652-9.789c6.072-10.515 2.456-24.01-8.06-30.082-5.094-2.941-11.03-3.723-16.711-2.2-5.682 1.523-10.431 5.167-13.371 10.261l-5.624 9.74c-2.95-.937-5.943-1.741-8.963-2.406v-11.242c.001-12.143-9.877-22.021-22.02-22.021s-22.021 9.878-22.021 22.021v11.243c-3.021.665-6.013 1.468-8.963 2.406l-5.624-9.739c-2.94-5.095-7.69-8.739-13.373-10.261-5.682-1.521-11.616-.741-16.708 2.2-5.094 2.941-8.738 7.689-10.26 13.372-1.523 5.682-.741 11.616 2.2 16.709l5.652 9.79c-2.276 2.081-4.459 4.265-6.541 6.541l-9.789-5.652c-5.095-2.942-11.029-3.724-16.711-2.201-5.682 1.522-10.43 5.166-13.371 10.26s-3.723 11.029-2.201 16.71c1.523 5.682 5.166 10.43 10.26 13.371l9.739 5.623c-2.105 6.614-3.505 13.407-4.218 20.315-6.565-2.117-13.265-3.873-20.097-5.224-1.269-.251-2.189-1.352-2.189-2.617v-24.972c0-9.757-7.938-17.695-17.695-17.695h-30.014c-9.757 0-17.695 7.938-17.695 17.695v24.972c0 1.265-.921 2.366-2.19 2.617-23.151 4.579-44.857 13.579-64.515 26.748-1.046.701-2.454.56-3.347-.333l-17.669-17.669c-6.898-6.899-18.124-6.9-25.023 0l-21.223 21.223c-6.898 6.899-6.898 18.125 0 25.024l17.669 17.669c.893.893 1.033 2.301.333 3.347-13.169 19.658-22.169 41.364-26.748 64.515-.251 1.269-1.352 2.19-2.617 2.19h-24.971c-9.757 0-17.695 7.938-17.695 17.694v30.014c0 9.757 7.938 17.695 17.695 17.695h24.972c1.265 0 2.366.921 2.617 2.19 4.579 23.151 13.579 44.857 26.748 64.515.701 1.046.561 2.454-.333 3.347l-17.669 17.668c-6.898 6.899-6.898 18.125 0 25.024l21.223 21.223c6.899 6.898 18.125 6.898 25.023 0l17.67-17.669c.894-.893 2.301-1.033 3.347-.333 19.658 13.169 41.364 22.169 64.515 26.748 1.269.251 2.19 1.352 2.19 2.617v24.972c0 9.757 7.938 17.694 17.695 17.694h30.014c9.757 0 17.695-7.938 17.695-17.694v-24.972c0-1.265.921-2.366 2.189-2.617 23.151-4.579 44.857-13.579 64.516-26.748 1.047-.7 2.454-.56 3.347.333l17.669 17.669c6.899 6.898 18.124 6.898 25.024 0l21.223-21.223c6.898-6.899 6.898-18.125 0-25.024l-17.669-17.669c-.893-.893-1.033-2.301-.333-3.347 13.169-19.658 22.169-41.364 26.748-64.515.251-1.269 1.352-2.19 2.617-2.19h24.972c9.757 0 17.695-7.938 17.695-17.695v-30.014c0-9.757-7.938-17.694-17.695-17.694h-24.972c-1.265 0-2.366-.921-2.617-2.19-1.543-7.802-3.593-15.438-6.133-22.888 6.323-.763 12.546-2.1 18.618-4.032l5.623 9.739c3.922 6.793 11.234 11.013 19.083 11.013 3.848 0 7.65-1.021 10.998-2.953 5.094-2.941 8.737-7.689 10.26-13.371s.741-11.617-2.2-16.711l-5.652-9.789c2.276-2.081 4.46-4.265 6.541-6.541l9.788 5.651c3.345 1.933 7.148 2.954 10.999 2.954 7.85 0 15.162-4.22 19.083-11.012 2.941-5.094 3.723-11.029 2.201-16.71-1.523-5.681-5.166-10.431-10.26-13.371l-9.741-5.624c.938-2.951 1.741-5.942 2.406-8.963zm-90.24 119.829h24.972c1.47 0 2.665 1.196 2.665 2.665v30.014c0 1.469-1.195 2.665-2.665 2.665h-24.972c-8.42 0-15.721 6.015-17.361 14.303-4.192 21.193-12.432 41.067-24.491 59.067-4.684 6.992-3.762 16.387 2.192 22.34l17.668 17.668c1.039 1.04 1.039 2.73 0 3.77l-21.222 21.222c-1.04 1.039-2.73 1.039-3.77 0l-17.669-17.669c-5.953-5.953-15.348-6.875-22.34-2.192-18 12.059-37.873 20.298-59.068 24.491-8.287 1.639-14.302 8.941-14.302 17.361v24.972c0 1.469-1.196 2.665-2.665 2.665h-30.014c-1.469 0-2.665-1.196-2.665-2.665v-24.972c0-8.42-6.015-15.721-14.303-17.361-21.194-4.192-41.067-12.432-59.067-24.491-2.986-2-6.411-2.978-9.818-2.978-4.571 0-9.112 1.759-12.522 5.17l-17.669 17.669c-1.04 1.039-2.73 1.038-3.769 0l-21.22-21.223c-1.039-1.039-1.039-2.73 0-3.769l17.668-17.668c5.955-5.953 6.876-15.349 2.193-22.34-12.058-18-20.298-37.874-24.491-59.067-1.639-8.288-8.94-14.303-17.361-14.303h-24.972c-1.469 0-2.665-1.196-2.665-2.665v-30.014c0-1.469 1.196-2.665 2.665-2.665h24.972c8.42 0 15.721-6.015 17.361-14.303 4.192-21.194 12.432-41.067 24.491-59.067 4.684-6.992 3.762-16.387-2.192-22.34l-17.669-17.668c-1.039-1.039-1.039-2.73 0-3.769l21.223-21.222c1.039-1.039 2.73-1.039 3.769 0l17.669 17.668c5.955 5.955 15.349 6.877 22.34 2.193 18-12.058 37.873-20.298 59.067-24.49 8.287-1.639 14.303-8.941 14.303-17.361v-24.974c0-1.47 1.196-2.665 2.665-2.665h30.014c1.469 0 2.665 1.195 2.665 2.665v24.972c0 8.42 6.015 15.722 14.302 17.361 21.194 4.192 41.067 12.432 59.068 24.49 6.992 4.684 16.387 3.761 22.34-2.192l17.669-17.668c1.039-1.039 2.73-1.039 3.769 0l21.222 21.222c1.039 1.04 1.039 2.73 0 3.77l-17.668 17.668c-5.955 5.953-6.876 15.349-2.193 22.34 12.058 18 20.298 37.874 24.491 59.067 1.638 8.287 8.939 14.303 17.36 14.303zm63.671-100.971 15.146 8.745c1.617.934 2.774 2.441 3.257 4.245.483 1.803.235 3.687-.7 5.305-1.245 2.157-3.57 3.498-6.067 3.498-1.232 0-2.403-.316-3.482-.939l-15.185-8.767c-3.207-1.852-7.286-1.091-9.61 1.794-3.962 4.92-8.466 9.424-13.387 13.387-2.885 2.323-3.647 6.402-1.795 9.61l8.767 15.185c.934 1.617 1.182 3.502.699 5.306s-1.64 3.312-3.256 4.244c-1.081.624-2.253.94-3.484.94-2.497 0-4.822-1.341-6.068-3.498l-8.744-15.146c-1.377-2.385-3.891-3.758-6.51-3.758-.91 0-1.833.166-2.725.513-8.024 3.126-16.401 5.005-24.975 5.653-2.064-4.657-4.324-9.232-6.792-13.713.041 0 .082.002.123.002 40.52 0 73.486-32.966 73.486-73.486 0-12.007-2.975-23.931-8.602-34.482-1.955-3.663-6.506-5.048-10.167-3.094-3.662 1.953-5.047 6.505-3.094 10.167 4.471 8.382 6.834 17.86 6.834 27.409 0 32.233-26.224 58.457-58.456 58.457-2.906 0-5.76-.222-8.552-.635.126-.387 18.307-18.722 18.307-18.722 6.898-6.899 6.898-18.125 0-25.024l-21.223-21.224c-6.899-6.898-18.124-6.898-25.024 0l-17.669 17.669c-.868.867-2.217 1.019-3.253.385-.675-3.535-1.042-7.177-1.042-10.906 0-32.233 26.224-58.457 58.456-58.457 10.694 0 21.16 2.927 30.267 8.464 3.548 2.157 8.168 1.029 10.326-2.517 2.156-3.546 1.029-8.169-2.517-10.325-11.461-6.969-24.627-10.651-38.075-10.651-40.52 0-73.486 32.966-73.486 73.486 0 .447.025.888.033 1.333-4.522-2.394-9.144-4.561-13.84-6.549.532-9.081 2.448-17.951 5.75-26.428 1.347-3.457-.031-7.38-3.245-9.235l-15.147-8.745c-1.617-.934-2.774-2.441-3.257-4.245s-.235-3.688.699-5.306c.933-1.617 2.441-2.774 4.244-3.257 1.805-.483 3.688-.235 5.305.699l15.185 8.767c3.208 1.853 7.287 1.091 9.61-1.794 3.962-4.92 8.466-9.424 13.386-13.386 2.886-2.323 3.647-6.403 1.795-9.611l-8.768-15.185c-.934-1.617-1.182-3.501-.699-5.305s1.64-3.311 3.259-4.246c1.616-.933 3.5-1.181 5.303-.698 1.804.483 3.312 1.64 4.246 3.258l8.745 15.146c1.856 3.213 5.78 4.592 9.235 3.244 5.895-2.296 12.046-3.947 18.281-4.907 3.666-.564 6.372-3.718 6.372-7.427v-17.48c0-3.855 3.136-6.991 6.991-6.991s6.991 3.136 6.991 6.991v17.48c0 3.709 2.706 6.863 6.372 7.427 6.234.959 12.385 2.611 18.281 4.907 3.456 1.345 7.38-.032 9.235-3.245l8.745-15.146c.933-1.617 2.441-2.774 4.244-3.258 1.805-.484 3.689-.235 5.305.699 3.339 1.927 4.487 6.212 2.559 9.551l-8.767 15.185c-1.852 3.208-1.091 7.287 1.795 9.61 4.92 3.962 9.424 8.466 13.387 13.387 2.323 2.885 6.402 3.646 9.61 1.794l15.185-8.767c3.338-1.93 7.623-.78 9.551 2.559.934 1.617 1.182 3.501.699 5.305s-1.64 3.311-3.258 4.245l-15.146 8.744c-3.213 1.855-4.592 5.777-3.245 9.235 2.296 5.896 3.947 12.047 4.907 18.282.564 3.666 3.718 6.372 7.427 6.372h17.48c3.855 0 6.991 3.136 6.991 6.991s-3.136 6.991-6.991 6.991h-17.48c-3.709 0-6.863 2.706-7.427 6.372-.96 6.235-2.611 12.386-4.907 18.281-1.345 3.459.033 7.381 3.246 9.236z" fill="#61de00" data-original="#000000" style="" class=""/><path d="m222.002 201.326c3.581 0 6.484-2.903 6.484-6.483 0-3.581-2.903-6.484-6.484-6.484s-6.484 2.903-6.484 6.484c0 3.58 2.903 6.483 6.484 6.483z" fill="#61de00" data-original="#000000" style="" class=""/><path d="m215.518 390.956c0 3.581 2.903 6.483 6.484 6.483s6.484-2.903 6.484-6.483-2.903-6.484-6.484-6.484-6.484 2.903-6.484 6.484z" fill="#61de00" data-original="#000000" style="" class=""/><path d="m176.215 213.595c3.101-1.791 4.163-5.756 2.373-8.857s-5.756-4.163-8.857-2.373-4.164 5.756-2.373 8.857 5.756 4.163 8.857 2.373z" fill="#61de00" data-original="#000000" style="" class=""/><path d="m265.416 381.061c1.79 3.101 5.756 4.163 8.857 2.373 3.101-1.791 4.164-5.756 2.373-8.857-1.79-3.101-5.756-4.164-8.857-2.373s-4.164 5.756-2.373 8.857z" fill="#61de00" data-original="#000000" style="" class=""/><ellipse cx="137.082" cy="243.871" rx="6.483" ry="6.483" transform="matrix(.55 -.835 .835 .55 -141.991 224.302)" fill="#61de00" data-original="#000000" style="" class=""/><path d="m303.68 347.543c3.101 1.79 7.066.728 8.857-2.373 1.79-3.101.728-7.066-2.373-8.857-3.101-1.79-7.066-.728-8.857 2.373s-.728 7.066 2.373 8.857z" fill="#61de00" data-original="#000000" style="" class=""/><path d="m117.462 292.899c0 3.581 2.903 6.484 6.484 6.484s6.483-2.903 6.483-6.484-2.903-6.483-6.483-6.483-6.484 2.903-6.484 6.483z" fill="#61de00" data-original="#000000" style="" class=""/><path d="m326.542 292.899c0-3.581-2.903-6.483-6.484-6.483s-6.484 2.903-6.484 6.483c0 3.581 2.903 6.484 6.484 6.484s6.484-2.903 6.484-6.484z" fill="#61de00" data-original="#000000" style="" class=""/><path d="m133.841 336.313c-3.101 1.791-4.163 5.756-2.373 8.857s5.756 4.163 8.857 2.373 4.164-5.756 2.373-8.857-5.756-4.163-8.857-2.373z" fill="#61de00" data-original="#000000" style="" class=""/><ellipse cx="306.922" cy="243.871" rx="6.483" ry="6.483" transform="matrix(.851 -.525 .525 .851 -82.331 197.433)" fill="#61de00" data-original="#000000" style="" class=""/><path d="m169.732 383.434c3.101 1.79 7.066.728 8.857-2.373 1.79-3.101.728-7.066-2.373-8.857s-7.066-.728-8.857 2.373-.728 7.067 2.373 8.857z" fill="#61de00" data-original="#000000" style="" class=""/><path d="m267.789 213.595c3.101 1.79 7.066.728 8.857-2.373 1.79-3.101.728-7.066-2.373-8.857s-7.066-.728-8.857 2.373-.728 7.066 2.373 8.857z" fill="#61de00" data-original="#000000" style="" class=""/><path d="m214.487 286.416c0 2.099.878 4.103 2.422 5.526l26.146 24.094c1.444 1.331 3.27 1.989 5.091 1.989 2.026 0 4.047-.814 5.528-2.422 2.813-3.052 2.618-7.806-.433-10.618l-23.724-21.863v-56.831c0-4.15-3.365-7.515-7.515-7.515s-7.515 3.365-7.515 7.515z" fill="#61de00" data-original="#000000" style="" class=""/></g></g></svg>
